<svg id="SvgjsSvg1001" width="288" height="288" xmlns="http://www.w3.org/2000/svg" version="1.1" xmlns:xlink="http://www.w3.org/1999/xlink" xmlns:svgjs="http://svgjs.com/svgjs"><defs id="SvgjsDefs1002"></defs><g id="SvgjsG1008" transform="matrix(0.9167000000000001,0,0,0.9167000000000001,11.581571159172043,11.581573224639882)"><svg xmlns="http://www.w3.org/2000/svg" data-name="Layer 1" viewBox="0 0 29 29" width="288" height="288"><path d="M4,14.5A10.51211,10.51211,0,0,1,14.5,4V2A12.50141,12.50141,0,0,0,8.27051,25.33936l.998-1.7334A10.53654,10.53654,0,0,1,4,14.5Zm18-.75v1.5h4v-1.5Zm-1.37988,5.14941,3.46435,2,.75-1.29882-3.46435-2Zm-3.01953,2.47071,2,3.46435,1.29882-.75-2-3.46435ZM13.75,26h1.5V22h-1.5ZM20.89941,4.91553l-1.29882-.75-2,3.46435,1.29882.75Zm.47071,6.48388,3.46435-2-.75-1.29882-3.46435,2ZM14.5,6a1,1,0,0,0-1,1v7.723l-2.85742,4.76239a1,1,0,0,0,1.71484,1.0293l3-5c.01227-.02045.01233-.04364.02295-.06458a1.40807,1.40807,0,0,0,.10614-.38318C15.48816,15.04358,15.5,15.02374,15.5,15V7A1,1,0,0,0,14.5,6Z" fill="#31a219" class="color000 svgShape"></path></svg></g></svg>